<svg width="32" height="37" viewBox="0 0 32 37" fill="none" xmlns="http://www.w3.org/2000/svg">
<path d="M1 14.3746C1 13.4344 1.44074 12.5486 2.19065 11.9816L16 1.54022L29.8093 11.9816C30.5593 12.5486 31 13.4344 31 14.3746V32.9252C31 34.3059 29.8807 35.4252 28.5 35.4252H21.5C20.9477 35.4252 20.5 34.9775 20.5 34.4252V24.3735C20.5 24.0974 20.2761 23.8735 20 23.8735H12C11.7239 23.8735 11.5 24.0974 11.5 24.3735V34.4252C11.5 34.9775 11.0523 35.4252 10.5 35.4252H3.5C2.11929 35.4252 1 34.3059 1 32.9252V14.3746Z" stroke="#14142B" stroke-width="2" stroke-linecap="round" stroke-linejoin="round"/>
</svg>
