<svg width="264" height="44" viewBox="0 0 264 44" fill="none" xmlns="http://www.w3.org/2000/svg">
<path d="M0.548 21.436C0.548 18.988 1.1 16.792 2.204 14.848C3.308 12.88 4.808 11.344 6.704 10.24C8.624 9.136 10.748 8.584 13.076 8.584C15.812 8.584 18.2 9.244 20.24 10.564C22.28 11.884 23.768 13.756 24.704 16.18H20.78C20.084 14.668 19.076 13.504 17.756 12.688C16.46 11.872 14.9 11.464 13.076 11.464C11.324 11.464 9.752 11.872 8.36 12.688C6.968 13.504 5.876 14.668 5.084 16.18C4.292 17.668 3.896 19.42 3.896 21.436C3.896 23.428 4.292 25.18 5.084 26.692C5.876 28.18 6.968 29.332 8.36 30.148C9.752 30.964 11.324 31.372 13.076 31.372C14.9 31.372 16.46 30.976 17.756 30.184C19.076 29.368 20.084 28.204 20.78 26.692H24.704C23.768 29.092 22.28 30.952 20.24 32.272C18.2 33.568 15.812 34.216 13.076 34.216C10.748 34.216 8.624 33.676 6.704 32.596C4.808 31.492 3.308 29.968 2.204 28.024C1.1 26.08 0.548 23.884 0.548 21.436ZM38.1846 34.324C36.3366 34.324 34.6566 33.904 33.1446 33.064C31.6566 32.224 30.4806 31.036 29.6166 29.5C28.7766 27.94 28.3566 26.14 28.3566 24.1C28.3566 22.084 28.7886 20.308 29.6526 18.772C30.5406 17.212 31.7406 16.024 33.2526 15.208C34.7646 14.368 36.4566 13.948 38.3286 13.948C40.2006 13.948 41.8926 14.368 43.4046 15.208C44.9166 16.024 46.1046 17.2 46.9686 18.736C47.8566 20.272 48.3006 22.06 48.3006 24.1C48.3006 26.14 47.8446 27.94 46.9326 29.5C46.0446 31.036 44.8326 32.224 43.2966 33.064C41.7606 33.904 40.0566 34.324 38.1846 34.324ZM38.1846 31.444C39.3606 31.444 40.4646 31.168 41.4966 30.616C42.5286 30.064 43.3566 29.236 43.9806 28.132C44.6286 27.028 44.9526 25.684 44.9526 24.1C44.9526 22.516 44.6406 21.172 44.0166 20.068C43.3926 18.964 42.5766 18.148 41.5686 17.62C40.5606 17.068 39.4686 16.792 38.2926 16.792C37.0926 16.792 35.9886 17.068 34.9806 17.62C33.9966 18.148 33.2046 18.964 32.6046 20.068C32.0046 21.172 31.7046 22.516 31.7046 24.1C31.7046 25.708 31.9926 27.064 32.5686 28.168C33.1686 29.272 33.9606 30.1 34.9446 30.652C35.9286 31.18 37.0086 31.444 38.1846 31.444ZM51.3839 24.064C51.3839 22.048 51.7919 20.284 52.6079 18.772C53.4239 17.236 54.5399 16.048 55.9559 15.208C57.3959 14.368 59.0039 13.948 60.7799 13.948C62.3159 13.948 63.7439 14.308 65.0639 15.028C66.3839 15.724 67.3919 16.648 68.0879 17.8V7.36H71.3999V34H68.0879V30.292C67.4399 31.468 66.4799 32.44 65.2079 33.208C63.9359 33.952 62.4479 34.324 60.7439 34.324C58.9919 34.324 57.3959 33.892 55.9559 33.028C54.5399 32.164 53.4239 30.952 52.6079 29.392C51.7919 27.832 51.3839 26.056 51.3839 24.064ZM68.0879 24.1C68.0879 22.612 67.7879 21.316 67.1879 20.212C66.5879 19.108 65.7719 18.268 64.7399 17.692C63.7319 17.092 62.6159 16.792 61.3919 16.792C60.1679 16.792 59.0519 17.08 58.0439 17.656C57.0359 18.232 56.2319 19.072 55.6319 20.176C55.0319 21.28 54.7319 22.576 54.7319 24.064C54.7319 25.576 55.0319 26.896 55.6319 28.024C56.2319 29.128 57.0359 29.98 58.0439 30.58C59.0519 31.156 60.1679 31.444 61.3919 31.444C62.6159 31.444 63.7319 31.156 64.7399 30.58C65.7719 29.98 66.5879 29.128 67.1879 28.024C67.7879 26.896 68.0879 25.588 68.0879 24.1ZM75.7121 24.064C75.7121 22.048 76.1201 20.284 76.9361 18.772C77.7521 17.236 78.8681 16.048 80.2841 15.208C81.7241 14.368 83.3321 13.948 85.1081 13.948C86.6441 13.948 88.0721 14.308 89.3921 15.028C90.7121 15.724 91.7201 16.648 92.4161 17.8V7.36H95.7281V34H92.4161V30.292C91.7681 31.468 90.8081 32.44 89.5361 33.208C88.2641 33.952 86.7761 34.324 85.0721 34.324C83.3201 34.324 81.7241 33.892 80.2841 33.028C78.8681 32.164 77.7521 30.952 76.9361 29.392C76.1201 27.832 75.7121 26.056 75.7121 24.064ZM92.4161 24.1C92.4161 22.612 92.1161 21.316 91.5161 20.212C90.9161 19.108 90.1001 18.268 89.0681 17.692C88.0601 17.092 86.9441 16.792 85.7201 16.792C84.4961 16.792 83.3801 17.08 82.3721 17.656C81.3641 18.232 80.5601 19.072 79.9601 20.176C79.3601 21.28 79.0601 22.576 79.0601 24.064C79.0601 25.576 79.3601 26.896 79.9601 28.024C80.5601 29.128 81.3641 29.98 82.3721 30.58C83.3801 31.156 84.4961 31.444 85.7201 31.444C86.9441 31.444 88.0601 31.156 89.0681 30.58C90.1001 29.98 90.9161 29.128 91.5161 28.024C92.1161 26.896 92.4161 25.588 92.4161 24.1ZM118.256 14.272L106.376 43.288H102.992L106.88 33.784L98.9242 14.272H102.56L108.752 30.256L114.872 14.272H118.256ZM140.075 29.104L131.399 20.824L140.075 12.58H144.215L135.503 20.824L144.215 29.104H140.075ZM182.652 8.908L175.38 34H171.708L165.876 13.804L159.828 34L156.192 34.036L149.172 8.908H152.664L158.136 30.184L164.184 8.908H167.856L173.616 30.112L179.124 8.908H182.652ZM204.237 23.38C204.237 24.004 204.201 24.664 204.129 25.36H188.361C188.481 27.304 189.141 28.828 190.341 29.932C191.565 31.012 193.041 31.552 194.769 31.552C196.185 31.552 197.361 31.228 198.297 30.58C199.257 29.908 199.929 29.02 200.313 27.916H203.841C203.313 29.812 202.257 31.36 200.673 32.56C199.089 33.736 197.121 34.324 194.769 34.324C192.897 34.324 191.217 33.904 189.729 33.064C188.265 32.224 187.113 31.036 186.273 29.5C185.433 27.94 185.013 26.14 185.013 24.1C185.013 22.06 185.421 20.272 186.237 18.736C187.053 17.2 188.193 16.024 189.657 15.208C191.145 14.368 192.849 13.948 194.769 13.948C196.641 13.948 198.297 14.356 199.737 15.172C201.177 15.988 202.281 17.116 203.049 18.556C203.841 19.972 204.237 21.58 204.237 23.38ZM200.853 22.696C200.853 21.448 200.577 20.38 200.025 19.492C199.473 18.58 198.717 17.896 197.757 17.44C196.821 16.96 195.777 16.72 194.625 16.72C192.969 16.72 191.553 17.248 190.377 18.304C189.225 19.36 188.565 20.824 188.397 22.696H200.853ZM211.837 17.944C212.509 16.768 213.493 15.808 214.789 15.064C216.085 14.32 217.561 13.948 219.217 13.948C220.993 13.948 222.589 14.368 224.005 15.208C225.421 16.048 226.537 17.236 227.353 18.772C228.169 20.284 228.577 22.048 228.577 24.064C228.577 26.056 228.169 27.832 227.353 29.392C226.537 30.952 225.409 32.164 223.969 33.028C222.553 33.892 220.969 34.324 219.217 34.324C217.513 34.324 216.013 33.952 214.717 33.208C213.445 32.464 212.485 31.516 211.837 30.364V34H208.561V7.36H211.837V17.944ZM225.229 24.064C225.229 22.576 224.929 21.28 224.329 20.176C223.729 19.072 222.913 18.232 221.881 17.656C220.873 17.08 219.757 16.792 218.533 16.792C217.333 16.792 216.217 17.092 215.185 17.692C214.177 18.268 213.361 19.12 212.737 20.248C212.137 21.352 211.837 22.636 211.837 24.1C211.837 25.588 212.137 26.896 212.737 28.024C213.361 29.128 214.177 29.98 215.185 30.58C216.217 31.156 217.333 31.444 218.533 31.444C219.757 31.444 220.873 31.156 221.881 30.58C222.913 29.98 223.729 29.128 224.329 28.024C224.929 26.896 225.229 25.576 225.229 24.064ZM245.129 0.0879989L235.265 40.12H232.025L241.853 0.0879989H245.129ZM250.622 12.58H254.762L263.474 20.824L254.762 29.104H250.622L259.334 20.824L250.622 12.58Z" fill="white"/>
</svg>
